Simulation
nRows=39
nColumns=15
endheader
time  TH_x TH_y TH_z SC_y  SC_z  SC_x  AC_y  AC_z  AC_x  GH_y  GH_z  GH_yy  EL_x  PS_y
0.0  0.000000  0.000000  0.000000  -29.094739518138713  -0.03492981953551674  -2.9984466226481565  55.84510889501552  8.806737214327748  -5.570416030075433  32.48894851564047  16.181434174336207  8.130686203734086  27.123538440844282  0.000000
0.038999999999999986  0.000000  0.000000  0.000000  -28.64640064582775  0.2369037539540238  -3.113751771753477  55.50168545499775  8.803280454904064  -5.482927457802309  32.514667868802356  16.370333386913263  7.9152022775013995  26.713181846684144  0.000000
0.07799999999999997  0.000000  0.000000  0.000000  -28.24434121659429  0.42802083486603515  -3.3124528191212206  55.16571648553265  8.767132308704236  -5.408472239145157  32.44302085676959  16.483285234350262  7.8159541213936405  26.295081654430774  0.000000
0.11699999999999997  0.000000  0.000000  0.000000  -27.89986472671134  0.5321410095827859  -3.586247874081527  54.88605903334985  8.754813199520791  -5.318279910950744  32.404807091674854  16.597319875150607  7.670968820767907  25.896180588070056  0.000000
0.15599999999999994  0.000000  0.000000  0.000000  -27.62525784246443  0.5528930114762334  -3.903456073741416  54.70741951371709  8.799857881219234  -5.200860895850722  32.56267157312392  16.802254175879312  7.256610389300788  25.53672674827085  0.000000
0.19499999999999992  0.000000  0.000000  0.000000  -27.437903624722704  0.5130955865750318  -4.2145684249691255  54.65532304939818  8.910639527103852  -5.052066835758713  33.07553052308467  17.181269504851972  6.359715858339563  25.236557217440428  0.000000
0.23399999999999993  0.000000  0.000000  0.000000  -27.341065451380445  0.4436909210457222  -4.47191635402197  54.72848645036083  9.080872462097684  -4.880502826389203  34.06397562288212  17.79889736162877  4.809261281950921  25.007355156387735  0.000000
0.2729999999999999  0.000000  0.000000  0.000000  -27.33010045103993  0.37390690350539  -4.6338391816480975  54.911439338251995  9.292835840886921  -4.702301512744096  35.551404278100556  18.69904862029998  2.5472507239606723  24.849773196249377  0.000000
0.3119999999999999  0.000000  0.000000  0.000000  -27.381162084295134  0.326147182335242  -4.670712547532627  55.17869262118033  9.524306794885462  -4.53553779114573  37.449616156864614  19.90050970191633  -0.360997362935933  24.756049899362743  0.000000
0.35099999999999987  0.000000  0.000000  0.000000  -27.45677109144563  0.3142966543760717  -4.562888704891853  55.50711009016391  9.753266035867892  -4.395390048869077  39.57432909140606  21.39579210215443  -3.7329984573840918  24.718471613994524  0.000000
0.38999999999999985  0.000000  0.000000  0.000000  -27.510379268867815  0.34442421546356605  -4.298191358665462  55.87564618778517  9.962223428915943  -4.294681478196371  41.711096127005355  23.151142018629866  -7.338405556824867  24.733569633174138  0.000000
0.4289999999999998  0.000000  0.000000  0.000000  -27.499100369894684  0.4144951268521413  -3.8706137953614177  56.26906967030002  10.143049007364725  -4.244318496397568  43.67629636379205  25.1122786746037  -10.960235317234568  24.795728385107513  0.000000
0.46799999999999986  0.000000  0.000000  0.000000  -27.393518833344668  0.5212414414307106  -3.2780250005518483  56.673911985883  10.294461843714478  -4.251785926289768  45.36182042605021  27.21376135753256  -14.446833831630832  24.896896134389173  0.000000
0.5069999999999998  0.000000  0.000000  0.000000  -27.18437062354805  0.6631221599312469  -2.518372098391375  57.079045724453316  10.416378911512103  -4.321653196684673  46.741559606129  29.390891599488487  -17.727776305262  25.020701702336932  0.000000
0.5459999999999998  0.000000  0.000000  0.000000  -26.883358151544865  0.839539254438239  -1.589543533241601  57.47315153010321  10.50678976731422  -4.4568847776864144  47.85267497680186  31.589485928765203  -20.80533937494249  25.143937312553135  0.000000
0.5849999999999997  0.000000  0.000000  0.000000  -26.520922093564106  1.0518388856604695  -0.4913419227124039  57.843815474746556  10.560851256486972  -4.658311268547112  48.76963757455249  33.77045513558206  -23.73277868088908  25.24555006825562  0.000000
0.6239999999999998  0.000000  0.000000  0.000000  -26.13864708739282  1.3018945716248995  0.771453055848538  58.178019898623674  10.572327182955068  -4.922862148533657  49.57740536487376  35.91021348517976  -26.584989252432663  25.311562404204825  0.000000
0.6629999999999998  0.000000  0.000000  0.000000  -25.776257481824317  1.5902177551463865  2.1877353856074664  58.46677016532062  10.536766292086313  -5.242212680580092  50.344645296891656  37.997112544622986  -29.423107235040597  25.334552664030852  0.000000
0.7019999999999997  0.000000  0.000000  0.000000  -25.459421462846382  1.9154491492503856  3.741860885835344  58.70905754089609  10.453976310802707  -5.601367071657886  51.1043938664912  40.0243856422144  -32.26026744321664  25.311261530146975  0.000000
0.7409999999999998  0.000000  0.000000  0.000000  -25.194188364616753  2.2745103908801316  5.415559815858523  58.91283008516255  10.328622986692583  -5.978986598036927  51.84807453251517  41.9834665347917  -35.04852908633767  25.24168416488813  0.000000
0.7799999999999997  0.000000  0.000000  0.000000  -24.972113252628873  2.6629528003193292  7.187782575240539  59.091778423384774  10.168521916269928  -6.348708802432151  52.53638920367804  43.860436719662886  -37.694048998036926  25.12967890302922  0.000000
0.8189999999999997  0.000000  0.000000  0.000000  -24.781326605212488  3.075754188870191  9.031144107093528  59.259873984489836  9.981950287772392  -6.680958054270193  53.11819091479096  45.63729863049335  -40.09238824546857  24.985778726758404  0.000000
0.8579999999999997  0.000000  0.000000  0.000000  -24.617466506748553  3.5084576155345855  10.908197086839486  59.42744825017787  9.776256928912613  -6.944868214499749  53.54836151575092  47.29625236891023  -42.162537196638034  24.828134361056765  0.000000
0.8969999999999997  0.000000  0.000000  0.000000  -24.487155606963054  3.958190728571766  12.770944550305643  59.60051576565208  9.558476985704662  -7.110486948810838  53.79594106936529  48.824271281278584  -43.862843188701866  24.680262069740557  0.000000
0.9359999999999997  0.000000  0.000000  0.000000  -24.405389457346484  4.423613321875483  14.565662926691989  59.7827242650603  9.337876911061523  -7.151863389567205  53.846989770447664  50.21603239485155  -45.19022036189595  24.564033050672933  0.000000
0.9749999999999996  0.000000  0.000000  0.000000  -24.38920101899342  4.904278704667845  16.240615249274807  59.9772840482437  9.127568171819249  -7.050096705772354  53.7036932786408  51.47558872383397  -46.17103310089129  24.491759417675713  0.000000
1.0139999999999996  0.000000  0.000000  0.000000  -24.451228382404675  5.3985649296214255  17.75492293052675  60.18601595129885  8.945668640354686  -6.797541058784823  53.38566845871353  52.61457189184793  -46.85385066285159  24.462148213560205  0.000000
1.0529999999999997  0.000000  0.000000  0.000000  -24.596528595585045  5.902281241627117  19.084475340738045  60.40617511359027  8.813569435812964  -6.400351930839417  52.930336348944735  53.64856001755014  -47.3033978045596  24.46305394105746  0.000000
1.0919999999999996  0.000000  0.000000  0.000000  -24.82292424860447  6.409894927716733  20.223085242185107  60.62999677513277  8.750801004515681  -5.876525770991497  52.38516313198205  54.59213325377818  -47.590240192211965  24.477323591023524  0.000000
1.1309999999999996  0.000000  0.000000  0.000000  -25.12361033851882  6.91671721608176  21.180050482385283  60.84664290658538  8.77011942301765  -5.2508591443653385  51.7976718556389  55.455519615366995  -47.77939565318634  24.488071559896433  0.000000
1.1699999999999995  0.000000  0.000000  0.000000  -25.49036173217739  7.4203086761866  21.974767437576848  61.04708217240223  8.873279927148477  -4.547824866466133  51.20497454010585  56.245139541739334  -47.918956142565186  24.481378131597484  0.000000
1.2089999999999996  0.000000  0.000000  0.000000  -25.91420480834229  7.919826279535072  22.631671791398706  61.22745056713948  9.052078175034838  -3.787218095436832  50.629742303027264  56.96585420661233  -48.03242167210824  24.44564079430882  0.000000
1.2479999999999996  0.000000  0.000000  0.000000  -26.383287059941473  8.413794049772877  23.17702033845505  61.38873165295459  9.293318083589028  -2.984734936160297  50.08111928319542  57.62248069848076  -48.11599782317595  24.369618982737926  0.000000
1.2869999999999995  0.000000  0.000000  0.000000  -26.882103111196926  8.89873298215928  23.636529587357604  61.53482376450179  9.58243559503637  -2.1540493316217173  49.55770705413263  58.22064442550931  -48.14360120974384  24.242116693727763  0.000000
1.3259999999999996  0.000000  0.000000  0.000000  -27.393074719193553  9.368643325452018  24.032840912384877  61.670001463936536  9.905055096280124  -1.309742493231979  49.05292266694049  58.7666636346778  -48.083222432427256  24.055827335310042  0.000000
1.3649999999999995  0.000000  0.000000  0.000000  -27.899289445297732  9.815101734484102  24.382783854631594  61.79752682319702  10.246837940244829  -0.46952263015844103  48.560630896849794  59.266965979230996  -47.91756475251126  23.813488493787236  0.000000
1.4039999999999995  0.000000  0.000000  0.000000  -28.38619207672085  10.228275225501969  24.695911424365207  61.9189179905713  10.593186766196066  0.3449411112148203  48.07984683058879  59.726433691872856  -47.65871087445029  23.53174172659898  0.000000
1.4429999999999994  0.000000  0.000000  0.000000  -28.84160872081168  10.597917147452632  24.97506509970452  62.03426455859142  10.929746284580645  1.1091281890357358  47.6172510398764  60.14704139831393  -47.34665308117225  23.237804705817606  0.000000
1.4819999999999995  0.000000  0.000000  0.000000  -29.254436858824167  10.91497754855556  25.21816024649783  62.142716469263995  11.244039407771556  1.7994421527033297  47.186690241224554  60.52683057536188  -47.03344796260449  22.95909491403373  0.000000
